<svg width="40" height="40" viewBox="0 0 40 40" fill="none" xmlns="http://www.w3.org/2000/svg">
<path d="M18.6891 4.30012L19.9937 5.40524L21.2883 4.2883C21.8053 3.84222 22.3593 3.46204 22.9484 3.14687C24.5287 2.30132 25.8792 2.00039 28.2739 2.00003C33.5636 2.02668 38 6.96536 38 14.1505C38 19.4561 35.3025 24.8063 29.7818 30.2339C26.8733 33.0934 23.1664 35.9095 20.5901 37.3678L20 37.7018L19.4099 37.3678C16.8336 35.9095 13.1267 33.0934 10.2182 30.2339C4.69748 24.8063 2 19.4561 2 14.1505C2 6.87365 6.39407 2 11.7355 2C14.0169 2 15.458 2.32497 17.0885 3.20647C17.6571 3.51388 18.1912 3.87839 18.6891 4.30012Z" stroke="black" stroke-width="4"/>
</svg>
