<svg width="40" height="41" viewBox="0 0 40 41" fill="none" xmlns="http://www.w3.org/2000/svg">
<path fill-rule="evenodd" clip-rule="evenodd" d="M10.0671 8.17514C10.6551 3.80552 15.0218 0.17514 19.9999 0.17514C24.978 0.17514 29.3447 3.80552 29.9327 8.17514H35.6939C37.903 8.17514 39.6939 9.966 39.6939 12.1751C39.6939 12.3644 39.6805 12.5535 39.6537 12.7408L36.2251 36.7408C35.9436 38.7114 34.2559 40.1751 32.2653 40.1751H7.7345C5.7439 40.1751 4.05622 38.7114 3.7747 36.7408L0.346131 12.7408C0.033712 10.5539 1.55331 8.52776 3.74024 8.21534C3.92762 8.18857 4.11665 8.17514 4.30593 8.17514H10.0671ZM25.8557 8.17514C25.2477 6.0513 22.796 4.17514 19.9999 4.17514C17.2038 4.17514 14.7521 6.0513 14.1441 8.17514H25.8557ZM4.30593 12.1751H9.99991V16.1751H13.9999V12.1751H25.9999V16.1751H29.9999V12.1751H35.6939L32.2653 36.1751H7.7345L4.30593 12.1751Z" fill="black"/>
</svg>
